<svg xmlns="http://www.w3.org/2000/svg" width="48" height="48" viewBox="0 0 48 48">
  <!-- Ícone de vida do Núcleo (coração rúnico). -->
  <g stroke-linejoin="round" stroke-linecap="round">
    <path d="M24 43 Q6 30 5 18 Q5 7 15 6 Q21 6 24 12 Q27 6 33 6 Q43 7 43 18 Q42 30 24 43 Z" fill="#ff4f6a"/>
    <path d="M43 18 Q42 30 24 43 Q34 30 36 18 Q37 10 33 6 Q43 7 43 18 Z" fill="#c8264a"/>
    <path d="M24 43 Q6 30 5 18 Q5 7 15 6 Q21 6 24 12 Q27 6 33 6 Q43 7 43 18 Q42 30 24 43 Z" fill="none" stroke="#2b1d33" stroke-width="4"/>
    <path d="M16 20 L22 20 L24 16 L27 26 L29 22 L33 22" fill="none" stroke="#3ff5ff" stroke-width="2.5"/>
    <path d="M11 16 Q12 11 16 10" fill="none" stroke="#ffd0d8" stroke-width="3"/>
  </g>
</svg>
